<?xml version="1.0" encoding="UTF-8"?>
<svg width="200px" height="200px" viewBox="0 0 200 200" version="1.1" xmlns="http://www.w3.org/2000/svg" xmlns:xlink="http://www.w3.org/1999/xlink">
    <title>Excel</title>
    <g id="Excel" stroke="none" stroke-width="1" fill="none" fill-rule="evenodd">
        <g transform="translate(10.000000, 10.000000)">
            <rect id="矩形" fill="#FFFFFF" fill-rule="nonzero" x="90" y="26.3414634" width="81.2195122" height="124.02439"></rect>
            <path d="M171.414163,26.1382313 L171.414163,150.569086 L89.8053492,150.569086 L89.8053492,26.1382313 L171.414163,26.1382313 M171.414163,17.5609756 L89.8053492,17.5609756 C85.0614574,17.5609756 81.2195122,21.3990809 81.2195122,26.1382313 L81.2195122,150.569086 C81.2195122,155.308236 85.0614574,159.146341 89.8053492,159.146341 L171.414163,159.146341 C176.158055,159.146341 180,155.308236 180,150.569086 L180,26.1382313 C180,21.3990809 176.158055,17.5609756 171.414163,17.5609756 Z" id="形状" fill="#217346" fill-rule="nonzero"></path>
            <rect id="矩形" fill="#217346" fill-rule="nonzero" x="128.414634" y="38.4146341" width="29.6341463" height="13.1707317"></rect>
            <rect id="矩形" fill="#217346" fill-rule="nonzero" x="128.414634" y="60.3658537" width="29.6341463" height="13.1707317"></rect>
            <rect id="矩形" fill="#217346" fill-rule="nonzero" x="128.414634" y="81.2195122" width="29.6341463" height="13.1707317"></rect>
            <rect id="矩形" fill="#217346" fill-rule="nonzero" x="128.414634" y="103.170732" width="29.6341463" height="13.1707317"></rect>
            <rect id="矩形" fill="#217346" fill-rule="nonzero" x="128.414634" y="124.02439" width="29.6341463" height="13.1707317"></rect>
            <rect id="矩形" fill="#217346" fill-rule="nonzero" x="90" y="38.4146341" width="29.6341463" height="13.1707317"></rect>
            <rect id="矩形" fill="#217346" fill-rule="nonzero" x="90" y="60.3658537" width="29.6341463" height="13.1707317"></rect>
            <rect id="矩形" fill="#217346" fill-rule="nonzero" x="90" y="81.2195122" width="29.6341463" height="13.1707317"></rect>
            <rect id="矩形" fill="#217346" fill-rule="nonzero" x="90" y="103.170732" width="29.6341463" height="13.1707317"></rect>
            <rect id="矩形" fill="#217346" fill-rule="nonzero" x="90" y="124.02439" width="29.6341463" height="13.1707317"></rect>
            <polygon id="路径" fill="#217346" points="107.560976 0 0 18.7701923 0 161.229808 107.560976 180"></polygon>
            <path d="M76.2197557,51.5853659 L61.3854219,52.4802059 L52.3285803,73.7842829 L51.7362371,75.7030265 L51.3070029,77.1485374 L50.9206921,78.5510271 L50.6202282,79.7039942 L50.6202282,79.7039942 C50.6202282,79.1361149 50.4914579,78.5940483 50.2339174,78.0863987 L49.8476066,76.5978666 L49.4183724,75.1953769 L48.9547995,73.9133464 L41.1770758,53.6761941 L26.857823,54.5710342 L42.1213911,87.7231379 L25.2439024,120.875242 L39.2283526,121.72706 L48.6199968,99.9927719 L49.049231,98.5042398 L49.3926184,97.1791882 L49.6930823,96.0692423 L49.6930823,95.1744023 L49.6930823,95.1744023 L49.9935463,96.7489766 L50.2940102,98.0740283 L50.5515507,99.0979318 L50.8090912,99.8206872 L60.5870463,123.000487 L76.8292683,124.02439 L58.5438915,87.5080321 L76.2197557,51.5853659" id="路径" fill="#FFFFFF" fill-rule="nonzero"></path>
        </g>
    </g>
</svg>