<?xml version="1.0" encoding="UTF-8"?>
<svg width="200px" height="200px" viewBox="0 0 200 200" version="1.1" xmlns="http://www.w3.org/2000/svg" xmlns:xlink="http://www.w3.org/1999/xlink">
    <title>Excel</title>
    <defs>
        <linearGradient x1="17.3720336%" y1="-6.51031712%" x2="82.6280518%" y2="106.510402%" id="linearGradient-1">
            <stop stop-color="#18884F" offset="0%"></stop>
            <stop stop-color="#117E43" offset="50%"></stop>
            <stop stop-color="#0B6631" offset="100%"></stop>
        </linearGradient>
    </defs>
    <g id="Excel" stroke="none" stroke-width="1" fill="none" fill-rule="evenodd">
        <g id="Excel-2018" transform="translate(10.000000, 16.000000)" fill-rule="nonzero">
            <path d="M113.023256,79.5348837 L41.8604651,66.9767442 L41.8604651,159.768857 C41.8604651,164.006551 45.2957746,167.44186 49.5334687,167.44186 L49.5334687,167.44186 L172.326996,167.44186 C176.56469,167.44186 180,164.006551 180,159.768857 L180,159.768857 L180,125.581395 L113.023256,79.5348837 Z" id="路径" fill="#185C37"></path>
            <path d="M113.023256,0 L49.5334687,0 C45.2957746,0 41.8604651,3.43530953 41.8604651,7.6730036 C41.8604651,7.6730036 41.8604651,7.6730036 41.8604651,7.6730036 L41.8604651,41.8604651 L113.023256,83.7209302 L150.697674,96.2790698 L180,83.7209302 L180,41.8604651 L113.023256,0 Z" id="路径" fill="#21A366"></path>
            <polygon id="路径" fill="#107C41" points="41.8604651 41.8604651 113.023256 41.8604651 113.023256 83.7209302 41.8604651 83.7209302"></polygon>
            <path d="M92.7921127,33.4883721 L41.8604651,33.4883721 L41.8604651,138.139535 L92.7921127,138.139535 C97.0240681,138.125778 100.451359,134.698487 100.465116,130.466531 L100.465116,41.1613757 C100.451359,36.9294202 97.0240681,33.5021291 92.7921127,33.4883721 Z" id="路径" fill="#000000" opacity="0.1"></path>
            <path d="M88.6060662,37.6744186 L41.8604651,37.6744186 L41.8604651,142.325581 L88.6060662,142.325581 C92.8380216,142.311824 96.2653128,138.884533 96.2790698,134.652578 L96.2790698,45.3474222 C96.2653128,41.1154668 92.8380216,37.6881756 88.6060662,37.6744186 Z" id="路径" fill="#000000" opacity="0.2"></path>
            <path d="M88.6060662,37.6744186 L41.8604651,37.6744186 L41.8604651,133.953488 L88.6060662,133.953488 C92.8380216,133.939731 96.2653128,130.51244 96.2790698,126.280485 L96.2790698,45.3474222 C96.2653128,41.1154668 92.8380216,37.6881756 88.6060662,37.6744186 Z" id="路径" fill="#000000" opacity="0.2"></path>
            <path d="M84.4200197,37.6744186 L41.8604651,37.6744186 L41.8604651,133.953488 L84.4200197,133.953488 C88.6519751,133.939731 92.0792663,130.51244 92.0930233,126.280485 L92.0930233,45.3474222 C92.0792663,41.1154668 88.6519751,37.6881756 84.4200197,37.6744186 Z" id="路径" fill="#000000" opacity="0.2"></path>
            <path d="M7.6730036,37.6744186 L84.419941,37.6744186 C88.6576351,37.6744186 92.0929446,41.1097281 92.0929446,45.3474222 L92.0929446,122.09436 C92.0929446,126.332054 88.6576351,129.767363 84.419941,129.767363 L7.6730036,129.767363 C3.43530953,129.767363 0,126.332132 0,122.094438 L0,45.3474222 C0,41.1097281 3.43530953,37.6744186 7.6730036,37.6744186 Z" id="路径" fill="url(#linearGradient-1)"></path>
            <path d="M23.7641664,108.661435 L39.9055617,83.6497871 L25.1162791,58.7762594 L37.012984,58.7762594 L45.0836816,74.6832362 C45.8288372,76.1943793 46.3394956,77.3162398 46.615814,78.0571503 L46.7204455,78.0571503 C47.250678,76.8515689 47.8088176,75.6808909 48.3948641,74.5450377 L57.0222863,58.7846708 L67.943662,58.7846708 L52.7775958,83.5116672 L68.3288569,108.661435 L56.7083917,108.661435 L47.3860465,91.201415 C46.9469243,90.4585391 46.5743072,89.6782443 46.2725974,88.8698067 L46.1344776,88.8698067 C45.8613822,89.6618146 45.4990632,90.4201769 45.0544383,91.1302719 L35.4558533,108.661435 L23.7641664,108.661435 Z" id="路径" fill="#FFFFFF"></path>
            <path d="M172.326996,0 L113.023256,0 L113.023256,41.8604651 L180,41.8604651 L180,7.6730036 C180,3.43530953 176.56469,0 172.326996,0 L172.326996,0 Z" id="路径" fill="#33C481"></path>
            <polygon id="路径" fill="#107C41" points="113.023256 83.7209302 180 83.7209302 180 125.581395 113.023256 125.581395"></polygon>
        </g>
    </g>
</svg>