<?xml version="1.0" encoding="UTF-8"?>
<svg width="200px" height="200px" viewBox="0 0 200 200" version="1.1" xmlns="http://www.w3.org/2000/svg" xmlns:xlink="http://www.w3.org/1999/xlink">
    <title>PowerPoint 2000</title>
    <g id="PowerPoint-2000" stroke="none" stroke-width="1" fill="none" fill-rule="evenodd">
        <g transform="translate(10.000000, 10.000000)" fill-rule="nonzero">
            <polygon id="路径" fill="#CE4525" points="0 90 0 0 76.2504715 0 152.433044 0 180 0 179.796303 47.954717 179.796303 113.977358 179.796303 180 89.8981516 180 0 180"></polygon>
            <rect id="rect25" fill="#FFFFFF" x="13" y="14" width="153" height="153"></rect>
            <path d="M31,41 L148,41 L148,140 L31,140 L31,41 Z M92.3213248,103.944444 L68.5950029,104.012346 L68.5950029,80.382716 C55.4061592,80.4506173 45.6844858,91.382716 45.888437,104.351852 C45.888437,117.185185 55.4061592,128.185185 68.5950029,128.049383 C81.1040093,127.91358 92.4572923,118.882716 92.3213248,103.944444 L92.3213248,103.944444 Z M108.909355,108.697531 L103.130738,108.697531 L103.130738,114.537037 L108.841371,114.537037 L108.909355,108.697531 Z M134.607205,114.469136 L134.539221,108.697531 L112.036607,108.697531 L112.036607,114.469136 L134.607205,114.469136 Z M108.909355,100.820988 L108.909355,95.0493827 L103.198722,95.0493827 L103.198722,100.820988 L108.909355,100.820988 Z M134.471238,95.0493827 L112.036607,95.0493827 L111.968623,100.820988 L134.471238,100.888889 L134.471238,95.0493827 Z M108.909355,87.4444444 L108.909355,81.537037 L103.198722,81.537037 L103.198722,87.4444444 L108.909355,87.4444444 Z M134.539221,81.537037 L112.10459,81.6049383 L112.10459,87.4444444 L134.539221,87.5123457 L134.539221,81.537037 Z M139.026148,50.0308642 L40.0418361,50.0308642 L40.0418361,63.5432099 L139.026148,63.5432099 L139.026148,50.0308642 Z" id="path21_1_" fill="#CE4525"></path>
        </g>
    </g>
</svg>