<?xml version="1.0" encoding="UTF-8"?>
<svg width="200px" height="200px" viewBox="0 0 200 200" version="1.1" xmlns="http://www.w3.org/2000/svg" xmlns:xlink="http://www.w3.org/1999/xlink">
    <title>Word 2000</title>
    <g id="Word-2000" stroke="none" stroke-width="1" fill="none" fill-rule="evenodd">
        <g transform="translate(10.000000, 10.000000)" fill-rule="nonzero">
            <rect id="rect28" fill="#FFFFFF" x="0" y="0" width="180" height="180"></rect>
            <path d="M0,90 L0,0 L90,0 L180,0 L180,90 L180,180 L90,180 L0,180 L0,90 Z M166.500609,56.9987816 L159.657506,56.9987816 L112.612698,147.002843 L84.7488832,147.002843 L84.7488832,103.755246 L59.8131853,147.002843 L35.9983755,147.002843 L35.9983755,56.8200893 L24.0016245,56.8200893 L24.0016245,38.9995939 L78.003249,38.9995939 L78.003249,56.8200893 L64.5038581,56.8200893 L64.5038581,89.2527413 L89.0131312,39.0036551 L114.005686,39.0036551 L114.038175,93.8418844 L133.146067,56.8241505 L123.001218,56.8241505 L123.001218,56.8241505 L123.001218,38.9995939 L166.500609,38.9995939 L166.500609,13.4993908 L13.4953296,13.4993908 L13.4953296,166.500609 L166.500609,166.500609 L166.500609,56.9987816 Z" id="path36" fill="#283D83"></path>
        </g>
    </g>
</svg>