<?xml version="1.0" encoding="UTF-8"?>
<svg width="200px" height="200px" viewBox="0 0 200 200" version="1.1" xmlns="http://www.w3.org/2000/svg" xmlns:xlink="http://www.w3.org/1999/xlink">
    <title>Excel 2000</title>
    <g id="Excel-2000" stroke="none" stroke-width="1" fill="none" fill-rule="evenodd">
        <g transform="translate(10.000000, 10.000000)" fill-rule="nonzero">
            <rect id="矩形" fill="#196C3F" x="0" y="0" width="180" height="180"></rect>
            <rect id="矩形" fill="#FFFFFF" x="17.9399142" y="17.9399142" width="144.120172" height="144.120172"></rect>
            <path d="M107.854077,139.570815 L23.1759657,139.570815 L23.1759657,127.982833 L60.472103,89.6995708 L27.7253219,56.1802575 L27.7253219,45.4506438 L70.0429185,45.4506438 C70.0429185,45.4506438 87.4678112,62.7038627 87.7682403,62.7038627 C88.0686695,62.7038627 106.051502,45.4506438 106.051502,45.4506438 L145.922747,45.4506438 L145.922747,56.5236052 L111.373391,94.5493562 L146.824034,94.5493562 L146.824034,106.266094 L139.44206,114.892704 L154.978541,129.570815 L154.978541,143.648069 L107.854077,143.648069 L107.854077,139.570815 Z" id="路径" fill="#196C3F"></path>
            <polygon id="路径" fill="#FFFFFF" points="121.373391 132.145923 39.9570815 50.7296137 34.8497854 50.7296137 34.8497854 55.8369099 116.266094 137.253219 121.373391 137.253219"></polygon>
        </g>
    </g>
</svg>